<svg xmlns="http://www.w3.org/2000/svg" viewBox="0 0 589.80554 522.87207"><defs><style>.a{fill:#f8c75c;stroke:#f8c75c;stroke-linejoin:round;stroke-width:27px;}.b{fill:#d8a98b;}.c{fill:#171e25;}.d{fill:#745447;}</style></defs><path class="a" d="M802.88246,465.33372c5.95795-3.59144,10.24469-11.73987,14.30042-20.51807-14.10755,7.38721-21.86011-6.21753-35.44019-6.21753,21.58032-21.60889,27.05743-40.81665,26.11383-59.06714-17.79449,36.40088-69.017,25.60254-92.02026-36.68371-48.7381,48.76989-90.24011-49.119-175.70386-49.119s-126.9657,97.88885-175.7038,49.119c-23.00323,62.28625-74.22577,73.08459-92.02026,36.68371-.94354,18.25049,4.53351,37.45825,26.11389,59.06714-13.58014,0-21.3327,13.60474-35.44024,6.21753,4.05572,8.7782,8.34246,16.92663,14.30047,20.51807-13.3056,15.92236-18.11291,35.86389-18.65277,57.82348l11.19165-18.65271c4.00836,24.161,10.98212,43.73767,21.76154,57.4303l6.21759-19.50305c13.81537,26.28186,20.84454,64.83044,24.87036,108.80774l13.05688-18.65271c2.17426,12.73315,8.292,19.98913,21.13983,20.51794,12.72663,49.11548,42.971,86.84937,85.97815,111.07129a198.46428,198.46428,0,0,0,194.37348,0c43.00714-24.22192,73.25152-61.95581,85.97815-111.07129,12.8479-.52881,18.96557-7.78479,21.13983-20.51794l13.057,18.65271c4.02575-43.9773,11.05493-82.52588,24.87023-108.80774l6.2176,19.50305c10.77941-13.69263,17.75317-33.26929,21.76159-57.4303l11.19165,18.65271C820.99532,501.19761,816.18806,481.25608,802.88246,465.33372Z" transform="translate(-245.22969 -280.22831)"/><path class="b" d="M590.32,534.55364a68.93843,68.93843,0,0,1-15.81489-1.80523c9.22088,11.18828,24.58169,18.71192,42.1262,19.3281.76746.03246,1.54581.04321,2.32409.04321,17.53368,0,33.09989-6.89672,42.87208-17.56608,6.72372-7.33989,10.71258-16.45263,10.71258-26.34371,0-12.09627-5.967-23.03588-15.6095-30.97031-9.69644-7.99935-23.13313-12.93948-37.97516-12.93948a62.24262,62.24262,0,0,0-28.36516,6.64812h-.01082c-11.52332,5.913-20.09556,15.2852-23.55474,26.35453,8.01011-10.88558,22.7981-18.19308,39.71555-18.19308a55.60972,55.60972,0,0,1,20.90637,3.99968c.01082,0,.01082,0,.01082.01082,10.42068,4.2591,18.54975,11.60982,22.50614,20.5388a30.17648,30.17648,0,0,1,2.65926,12.25838,42.99107,42.99107,0,0,0-9.88026-6.74536,52.25426,52.25426,0,0,0-5.52384-2.42141,66.115,66.115,0,0,0-23.05753-3.99967c-12.23681,0-23.39256,3.10243-31.81351,8.20474a63.60027,63.60027,0,0,0,28.57054,6.42108A65.673,65.673,0,0,0,635.3,512.94467C628.95457,525.50577,611.21556,534.55364,590.32,534.55364Z" transform="translate(-245.22969 -280.22831)"/><path class="b" d="M452.3425,483.12021c0-.01082,0-.01082.01082-.01082a55.60963,55.60963,0,0,1,20.90636-3.99968c16.91745,0,31.70545,7.3075,39.71555,18.19308-3.45918-11.06933-12.03142-20.44155-23.55474-26.35453h-.01082a62.24255,62.24255,0,0,0-28.36515-6.64812c-14.842,0-28.27873,4.94013-37.97517,12.93948-9.64247,7.93443-15.60949,18.874-15.60949,30.97031,0,9.89108,3.98885,19.00382,10.71258,26.34371,9.77218,10.66936,25.33839,17.56608,42.87208,17.56608.77828,0,1.55662-.01075,2.32408-.04321,17.54451-.61618,32.90533-8.13982,42.1262-19.3281a68.93841,68.93841,0,0,1-15.81488,1.80523c-20.89555,0-38.63456-9.04787-44.98-21.609a65.6731,65.6731,0,0,0,24.18173,4.4321,63.60031,63.60031,0,0,0,28.57055-6.42108c-8.421-5.10231-19.57671-8.20474-31.81352-8.20474a66.115,66.115,0,0,0-23.05752,3.99967,52.25245,52.25245,0,0,0-5.52384,2.42141,42.99085,42.99085,0,0,0-9.88026,6.74536,30.17647,30.17647,0,0,1,2.65925-12.25838C433.79275,494.73,441.92181,487.37931,452.3425,483.12021Z" transform="translate(-245.22969 -280.22831)"/><path class="b" d="M720.05611,541.07785c-14.30444-.44542-9.31384,44.45622-18.65274,44.45622-5.61252,0-10.56994-46.63193-10.56994-46.63193-12.28886,22.404-28.41839,37.74082-50.3624,42.3783,16.01189,16.02272,10.721,39.64165-4.3941,66.43547-.93695-49.73826-18.44464-77.289-51.5642-54.72074,6.116-13.76461,2.81913-25.84577-10.61414-34.80392a37.72648,37.72648,0,0,1-14.08182-16.81333c-5.91345-14.25014-12.06025-26.5592-19.8168-25.48085-7.75655-1.07835-13.90336,11.23071-19.8168,25.48085a37.7265,37.7265,0,0,1-14.08183,16.81333c-13.43326,8.95815-16.73013,21.03931-10.61414,34.80392-33.11955-22.5683-50.62724,4.98248-51.5642,54.72074-15.11512-26.79382-20.406-50.41275-4.394-66.43547-21.94407-4.63748-38.07354-19.97435-50.36247-42.3783,0,0-4.95742,46.63193-10.56987,46.63193-9.339,0-4.34837-44.90164-18.65281-44.45622-11.44962.05892-16.0873,14.24717-13.91041,40.36.492,5.90156.81041,11.824,2.942,17.34914,1.78307,4.62212,4.53694,19.92118,5.52529,28.46993.83569,7.22826,10.93763,5.42679,13.64776-3.123l.02356-.03484C396.38981,696.20915,457.61615,739.8572,540,741.59546c82.38388-1.73826,143.61015-45.38631,171.828-117.49638l.02355.03484c2.7102,8.54981,12.81208,10.35128,13.64776,3.123.98836-8.54875,3.74223-23.84781,5.52529-28.46993,2.13156-5.52516,2.54842-11.44019,2.942-17.34914C735.72808,554.99169,731.50573,541.13677,720.05611,541.07785ZM365.35953,572.51746a1.37568,1.37568,0,0,1-2.52552.665c-2.0675-3.24126-3.68965-4.67714-4.497-2.81088-.97885,3.62155,8.23437,24.17124,6.79591,30.36074-1.35764,5.84192-9.9089,4.6134-9.46975-1.36806.01848-.25191.04685-.50659.08281-.76443a29.75143,29.75143,0,0,0-.94666-13.23856c-3.30816-10.29909-2.90114-24.28842,4.7061-24.28842C363.80771,561.07285,365.88,565.63994,365.35953,572.51746Zm197.45035,3.64478c8.51068-.88174,15.79528,2.12226,16.27059,6.70967s-6.03874,9.021-14.54942,9.90282-15.79522-2.12226-16.27053-6.70967S554.29919,577.044,562.80988,576.16224Zm-61.89042,6.70967c.47531-4.58741,7.75992-7.59141,16.2706-6.70967s15.02466,5.31541,14.54935,9.90282-7.75985,7.59141-16.27053,6.70967S500.44422,587.45932,500.91946,582.87191Zm-5.89035,109.58815c-.118-35.5089,29.82909-36.67949,29.82909-36.67949-5.26758,0-8.52876-9.90942-8.52876-9.90942a60.7839,60.7839,0,0,0,47.34106,0s-3.26118,9.90942-8.52876,9.90942c0,0,29.947,1.17059,29.82908,36.67949C569.17454,664.97644,508.483,664.97644,495.02911,692.46006Zm95.75539-60.05923q-.56014.04363-1.15858.09091a629.94256,629.94256,0,0,1-99.252,0q-.598-.0473-1.15838-.09091c-28.94089-2.25455-38.91728-23.54656-15.45788-37.153-2.92191,16.11211,9.67745,24.87971,37.45374,29.3793a180.12226,180.12226,0,0,0,57.57721,0c27.7763-4.49959,40.37566-13.26719,37.45374-29.3793C629.70171,608.85427,619.72532,630.14628,590.7845,632.40083Zm134.41608-47.03956a29.75129,29.75129,0,0,0-.94666,13.23856c.036.25784.06433.51252.0828.76443.43915,5.98146-8.11211,7.21-9.46974,1.36806-1.43846-6.1895,7.77476-26.73919,6.796-30.36074-.80738-1.86626-2.42952-.43038-4.497,2.81088a1.37568,1.37568,0,0,1-2.52552-.665c-.52051-6.87752,1.55181-11.44461,5.85413-11.44461C728.10171,561.07285,728.50873,575.06218,725.20058,585.36127Z" transform="translate(-245.22969 -280.22831)"/><path class="b" d="M413.76627,432.0327a34.52372,34.52372,0,0,1,29.25863-13.0298c19.39777,1.21829,43.0561,5.96187,62.23409-11.47265,6.94865,12.01407-5.83829,26.84053-54.53837,39.35161,70.36817-7.692,57.55358,26.983,89.27935,29.22267,31.72576-2.2397,18.91118-36.91463,89.27941-29.22267-48.70008-12.51108-61.48708-27.33754-54.53844-39.35161,19.178,17.43452,42.83632,12.69094,62.23409,11.47265a34.52375,34.52375,0,0,1,29.25864,13.0298c13.80419,17.49139,18.92028,41.45421,33.30442,42.20656-23.99072-77.20993-61.90961-139.49885-144.8871-153.51754a87.95462,87.95462,0,0,0-29.30205,0c-82.97749,14.01869-120.89638,76.30761-144.887,153.51754C394.846,473.48691,399.96208,449.52409,413.76627,432.0327ZM540,458.683c-4.40254-9.36174-12.927-17.33746-22.96153-24.80542a76.31777,76.31777,0,0,0,45.923,0C552.927,441.34555,544.40251,449.32127,540,458.683ZM515.0866,358.02708a58.3973,58.3973,0,0,0,49.82673,0l.68235-.32184L550.448,371.99542a15.22559,15.22559,0,0,1-20.89614,0l-15.14765-14.29018Zm-13.85341,20.04571c15.80525,0,22.39075,19.03133,38.76678,19.03133s22.96152-19.03133,38.76677-19.03133c13.82953,0,23.52954,8.574,33.12583,20.58961-13.07533-4.33841-27.90588-7.8546-35.94634-4.19253C559.72288,401.859,555.71746,415.10447,540,415.10447s-19.72292-13.24549-35.94627-20.6346c-8.04045-3.66207-22.871-.14588-35.94633,4.19253C477.70366,386.64681,487.40366,378.07279,501.23319,378.07279Z" transform="translate(-245.22969 -280.22831)"/><path class="c" d="M269.78888,502.84015c4.00838,24.16108,10.98209,43.73759,21.76151,57.43028l6.2176-19.503c13.81541,26.28182,20.84455,64.83041,24.87035,108.80776l13.05692-18.65275c2.17425,12.73317,8.292,19.98907,21.1398,20.518,12.72663,49.11542,42.971,86.84937,85.97818,111.07128a198.46463,198.46463,0,0,0,194.37345,0c43.00714-24.22191,73.25156-61.95586,85.97819-111.07128,12.8479-.529,18.96555-7.78485,21.1398-20.518l13.057,18.65275c4.0258-43.97735,11.05494-82.52594,24.87028-108.80776l6.21761,19.503c10.77941-13.69269,17.75312-33.2692,21.76157-57.43028l11.19165,18.65275c-.5399-21.95965-5.34715-41.90115-18.65274-57.82357,5.95791-3.5914,10.24466-11.7398,14.30041-20.518-14.10756,7.38727-21.86015-6.21761-35.44021-6.21761,21.58033-21.6089,27.05746-40.81665,26.11384-59.06706-17.7945,36.40079-69.01706,25.60257-92.02029-36.68371C666.9657,389.95282,625.46366,292.064,540,292.064s-126.96573,97.88886-175.70382,49.119c-23.00322,62.28628-74.22579,73.0845-92.02029,36.68371-.94355,18.25041,4.53351,37.45816,26.11391,59.06706-13.58013,0-21.33272,13.60488-35.44028,6.21761,4.05576,8.77822,8.34251,16.92662,14.30048,20.518-13.30559,15.92242-18.11291,35.86392-18.65274,57.82357Zm464.17765,78.59772c-.39356,5.909-.81042,11.824-2.942,17.34914-1.78306,4.62212-4.53693,19.92118-5.52529,28.46993-.83568,7.22826-10.93756,5.42679-13.64776-3.123l-.02355-.03484C683.61012,696.20915,622.38385,739.8572,540,741.59546c-82.38382-1.73826-143.61016-45.38631-171.828-117.49638l-.02356.03484c-2.71013,8.54981-12.81207,10.35128-13.64776,3.123-.98835-8.54875-3.74222-23.84781-5.52529-28.46993-2.13156-5.52516-2.45-11.44758-2.942-17.34914-2.17689-26.11285,2.46079-40.3011,13.91041-40.36,14.30444-.44542,9.31384,44.45622,18.65281,44.45622,5.61245,0,10.56987-46.63193,10.56987-46.63193,12.28893,22.404,28.4184,37.74082,50.36247,42.3783-16.012,16.02272-10.72109,39.64165,4.394,66.43547.937-49.73826,18.44465-77.289,51.5642-54.72074-6.116-13.76461-2.81912-25.84577,10.61414-34.80392a37.7265,37.7265,0,0,0,14.08183-16.81333c5.91344-14.25014,12.06025-26.5592,19.8168-25.48085,7.75655-1.07835,13.90335,11.23071,19.8168,25.48085a37.72648,37.72648,0,0,0,14.08182,16.81333c13.43327,8.95815,16.73014,21.03931,10.61414,34.80392,33.11956-22.5683,50.62725,4.98248,51.5642,54.72074,15.11512-26.79382,20.406-50.41275,4.3941-66.43547,21.944-4.63748,38.07354-19.97435,50.3624-42.3783,0,0,4.95742,46.63193,10.56994,46.63193,9.3389,0,4.3483-44.90164,18.65274-44.45622C731.50573,541.13677,735.72808,554.99169,733.96653,581.43787ZM437.05736,509.172a52.25245,52.25245,0,0,1,5.52384-2.42141,66.115,66.115,0,0,1,23.05752-3.99967c12.23681,0,23.39256,3.10243,31.81352,8.20474a63.60031,63.60031,0,0,1-28.57055,6.42108A65.6731,65.6731,0,0,1,444.7,512.94467c6.3454,12.5611,24.08441,21.609,44.98,21.609a68.93841,68.93841,0,0,0,15.81488-1.80523c-9.22087,11.18828-24.58169,18.71192-42.1262,19.3281-.76746.03246-1.5458.04321-2.32408.04321-17.53369,0-33.0999-6.89672-42.87208-17.56608-6.72373-7.33989-10.71258-16.45263-10.71258-26.34371,0-12.09627,5.967-23.03588,15.60949-30.97031,9.69644-7.99935,23.13314-12.93948,37.97517-12.93948a62.24255,62.24255,0,0,1,28.36515,6.64812h.01082c11.52332,5.913,20.09556,15.2852,23.55474,26.35453-8.0101-10.88558-22.7981-18.19308-39.71555-18.19308a55.60963,55.60963,0,0,0-20.90636,3.99968c-.01082,0-.01082,0-.01082.01082-10.42069,4.2591-18.54975,11.60982-22.50615,20.5388a30.17647,30.17647,0,0,0-2.65925,12.25838A42.99085,42.99085,0,0,1,437.05736,509.172Zm174.06088,8.20474a63.60027,63.60027,0,0,1-28.57054-6.42108c8.421-5.10231,19.5767-8.20474,31.81351-8.20474a66.115,66.115,0,0,1,23.05753,3.99967,52.25426,52.25426,0,0,1,5.52384,2.42141,42.99107,42.99107,0,0,1,9.88026,6.74536,30.17648,30.17648,0,0,0-2.65926-12.25838c-3.95639-8.929-12.08546-16.2797-22.50614-20.5388,0-.01082,0-.01082-.01082-.01082a55.60972,55.60972,0,0,0-20.90637-3.99968c-16.91745,0-31.70544,7.3075-39.71555,18.19308,3.45918-11.06933,12.03142-20.44155,23.55474-26.35453h.01082a62.24262,62.24262,0,0,1,28.36516-6.64812c14.842,0,28.27872,4.94013,37.97516,12.93948,9.64248,7.93443,15.6095,18.874,15.6095,30.97031,0,9.89108-3.98886,19.00382-10.71258,26.34371-9.77219,10.66936-25.3384,17.56608-42.87208,17.56608-.77828,0-1.55663-.01075-2.32409-.04321-17.54451-.61618-32.90532-8.13982-42.1262-19.3281A68.93843,68.93843,0,0,0,590.32,534.55364c20.89554,0,38.63455-9.04787,44.98-21.609A65.673,65.673,0,0,1,611.11824,517.37677Zm175.4599,4.06889c-28.27741-12.64027-42.7908-11.09875-42.7908-11.09875,17.6027,12.57626,7.64472,52.41083,7.64472,52.41083-4.1156-22.67168-15.932-40.32861-36.87036-38.84568,4.55316-13.02083,5.15053-26.59727,2.03253-40.69552,28.26526,11.56066,46.38087.5717,56.41875-28.36351,0,0-1.554,32.25682-9.249,43.16186C773.68649,505.13138,781.4305,512.9,786.57814,521.44566ZM708.456,376.21131c10.2826,24.04661,27.4922,39.6018,54.33351,43.39252,0,0-19.13491,2.57995-18.27488,22.78978l-6.94251-18.9726c-6.58273,1.313-18.00972,12.42768-20.36224,22.19756-7.955-31.81972-28.16478-55.46953-28.16478-55.46953C700.45414,392.75855,708.23444,387.17,708.456,376.21131ZM525.34894,320.72172a87.95462,87.95462,0,0,1,29.30205,0c82.97749,14.01869,120.89638,76.30761,144.8871,153.51754-14.38414-.75235-19.50023-24.71517-33.30442-42.20656A34.52375,34.52375,0,0,0,636.975,419.0029c-19.39777,1.21829-43.05609,5.96187-62.23409-11.47265-6.94864,12.01407,5.83836,26.84053,54.53844,39.35161-70.36823-7.692-57.55365,26.983-89.27941,29.22267-31.72577-2.2397-18.91118-36.91463-89.27935-29.22267,48.70008-12.51108,61.487-27.33754,54.53837-39.35161-19.178,17.43452-42.83632,12.69094-62.23409,11.47265a34.52372,34.52372,0,0,0-29.25863,13.0298c-13.80419,17.49139-18.92029,41.45421-33.30436,42.20656C404.45256,397.02933,442.37145,334.74041,525.34894,320.72172Zm-153.805,55.48959c.22156,10.95868,8.00192,16.54724,19.4109,13.93773,0,0-20.20983,23.64981-28.16478,55.46953-2.35252-9.76988-13.77951-20.88459-20.36224-22.19756l-6.94251,18.9726c.86-20.20983-18.27481-22.78978-18.27481-22.78978C344.05181,415.81311,361.26135,400.25792,371.54394,376.21131ZM316.236,498.01489c-7.695-10.905-9.249-43.16186-9.249-43.16186,10.03788,28.93521,28.15343,39.92417,56.41875,28.36351-3.118,14.09825-2.52063,27.67469,2.03253,40.69552-20.93836-1.48293-32.75482,16.174-36.87036,38.84568,0,0-9.958-39.83457,7.64472-52.41083,0,0-14.51339-1.54152-42.7908,11.09875C298.56943,512.9,306.31344,505.13138,316.236,498.01489Z" transform="translate(-245.22969 -280.22831)"/><path class="c" d="M359.50546,561.07285c-7.60724,0-8.01426,13.98933-4.7061,24.28842a29.75143,29.75143,0,0,1,.94666,13.23856c-.036.25784-.06433.51252-.08281.76443-.43915,5.98146,8.11211,7.21,9.46975,1.36806,1.43846-6.1895-7.77476-26.73919-6.79591-30.36074.80731-1.86626,2.42946-.43038,4.497,2.81088a1.37568,1.37568,0,0,0,2.52552-.665C365.88,565.63994,363.80771,561.07285,359.50546,561.07285Z" transform="translate(-245.22969 -280.22831)"/><ellipse class="c" cx="516.32945" cy="584.46849" rx="8.35071" ry="15.49244" transform="translate(-363.46772 757.58731) rotate(-84.08481)"/><path class="c" d="M720.49454,561.07285c-4.30232,0-6.37464,4.56709-5.85413,11.44461a1.37568,1.37568,0,0,0,2.52552.665c2.0675-3.24126,3.68964-4.67714,4.497-2.81088.97879,3.62155-8.23443,24.17124-6.796,30.36074,1.35763,5.84192,9.90889,4.6134,9.46974-1.36806-.01847-.25191-.04684-.50659-.0828-.76443a29.75129,29.75129,0,0,1,.94666-13.23856C728.50873,575.06218,728.10171,561.07285,720.49454,561.07285Z" transform="translate(-245.22969 -280.22831)"/><ellipse class="c" cx="563.67048" cy="584.46849" rx="15.49248" ry="8.35071" transform="translate(-302.46158 -219.02654) rotate(-5.91519)"/><path class="c" d="M555.14174,655.78057c5.26758,0,8.52876-9.90942,8.52876-9.90942a60.7839,60.7839,0,0,1-47.34106,0s3.26118,9.90942,8.52876,9.90942c0,0-29.94706,1.17059-29.82909,36.67949,13.45385-27.48362,74.14543-27.48362,89.94171,0C585.08879,656.95116,555.14174,655.78057,555.14174,655.78057Z" transform="translate(-245.22969 -280.22831)"/><path class="c" d="M606.24231,595.24782c2.92192,16.11211-9.67744,24.87971-37.45374,29.3793a180.12226,180.12226,0,0,1-57.57721,0c-27.77629-4.49959-40.37565-13.26719-37.45374-29.3793-23.4594,13.60645-13.483,34.89846,15.45788,37.153q.56005.04363,1.15838.09091a629.94256,629.94256,0,0,0,99.252,0q.59807-.0473,1.15858-.09091C619.72532,630.14628,629.70171,608.85427,606.24231,595.24782Z" transform="translate(-245.22969 -280.22831)"/><path class="c" d="M517.03844,433.87759c10.03452,7.468,18.559,15.44368,22.96153,24.80542,4.40254-9.36174,12.927-17.33746,22.96152-24.80542A76.31777,76.31777,0,0,1,517.03844,433.87759Z" transform="translate(-245.22969 -280.22831)"/><path class="c" d="M504.0537,394.46987c16.22335,7.38911,20.22877,20.6346,35.94627,20.6346s19.72291-13.24549,35.94626-20.6346c8.04046-3.66207,22.871-.14588,35.94634,4.19253-9.59629-12.01559-19.2963-20.58961-33.12583-20.58961-15.80525,0-22.39075,19.03133-38.76677,19.03133s-22.96153-19.03133-38.76678-19.03133c-13.82953,0-23.52953,8.574-33.12582,20.58961C481.1827,394.324,496.01325,390.8078,504.0537,394.46987Z" transform="translate(-245.22969 -280.22831)"/><path class="c" d="M550.448,371.99542l15.14764-14.29018-.68235.32184a58.3973,58.3973,0,0,1-49.82673,0l-.68235-.32184,15.14765,14.29018A15.22559,15.22559,0,0,0,550.448,371.99542Z" transform="translate(-245.22969 -280.22831)"/><path class="d" d="M336.21266,510.34691c-17.60276,12.57626-7.64472,52.41083-7.64472,52.41083,4.11554-22.67168,15.932-40.32861,36.87036-38.84568-4.55316-13.02083-5.15053-26.59727-2.03253-40.69552-28.26532,11.56066-46.38087.5717-56.41875-28.36351,0,0,1.554,32.25682,9.249,43.16186-9.92255,7.11649-17.66656,14.88512-22.81413,23.43077C321.69927,508.80539,336.21266,510.34691,336.21266,510.34691Z" transform="translate(-245.22969 -280.22831)"/><path class="d" d="M335.48531,442.39361l6.94251-18.9726c6.58273,1.313,18.00972,12.42768,20.36224,22.19756,7.95495-31.81972,28.16478-55.46953,28.16478-55.46953-11.409,2.60951-19.18934-2.97905-19.4109-13.93773-10.28259,24.04661-27.49213,39.6018-54.33344,43.39252C317.2105,419.60383,336.34534,422.18378,335.48531,442.39361Z" transform="translate(-245.22969 -280.22831)"/><path class="d" d="M716.59423,483.21654c3.118,14.09825,2.52063,27.67469-2.03253,40.69552,20.93836-1.48293,32.75476,16.174,36.87036,38.84568,0,0,9.958-39.83457-7.64472-52.41083,0,0,14.51339-1.54152,42.7908,11.09875C781.4305,512.9,773.68649,505.13138,763.764,498.01489c7.695-10.905,9.249-43.16186,9.249-43.16186C762.9751,483.78824,744.85949,494.7772,716.59423,483.21654Z" transform="translate(-245.22969 -280.22831)"/><path class="d" d="M737.57211,423.421l6.94251,18.9726c-.86-20.20983,18.27488-22.78978,18.27488-22.78978-26.84131-3.79072-44.05091-19.34591-54.33351-43.39252-.22155,10.95868-8.00185,16.54724-19.4109,13.93773,0,0,20.20983,23.64981,28.16478,55.46953C719.56239,435.84869,730.98938,424.734,737.57211,423.421Z" transform="translate(-245.22969 -280.22831)"/></svg>